<svg width="138" height="79" viewBox="0 0 138 79" fill="none" xmlns="http://www.w3.org/2000/svg">
<path d="M49.421 38.424C56.845 40.856 62.221 48.152 62.221 56.984C62.221 71.192 52.493 79 36.109 79H0.0130005V0.407997H33.677C50.061 0.407997 59.917 7.70399 59.917 21.784C59.917 30.232 55.181 36.376 49.421 38.424ZM19.597 31.512H31.373C37.389 31.512 40.589 29.208 40.589 24.344C40.589 19.48 37.389 17.304 31.373 17.304H19.597V31.512ZM19.597 46.872V62.104H33.421C39.181 62.104 42.381 59.032 42.381 54.552C42.381 49.816 39.181 46.872 33.421 46.872H19.597ZM98.783 53.016H91.615V79H71.263V0.407997H106.591C123.487 0.407997 135.135 10.008 135.135 27.16C135.135 39.064 129.119 47.256 119.519 50.84L137.951 79H115.167L98.783 53.016ZM91.615 17.688V36.632H104.415C111.711 36.632 115.039 32.92 115.039 27.16C115.039 21.4 111.711 17.688 104.415 17.688H91.615Z" fill="#C1281C"/>
</svg>
