<svg width="167" height="167" viewBox="0 0 167 167" fill="none" xmlns="http://www.w3.org/2000/svg">
  <path
    d="M66.421 85.424C73.845 87.856 79.221 95.152 79.221 103.984C79.221 118.192 69.493 126 53.109 126H17.013V47.408H50.677C67.061 47.408 76.917 54.704 76.917 68.784C76.917 77.232 72.181 83.376 66.421 85.424ZM36.597 78.512H48.373C54.389 78.512 57.589 76.208 57.589 71.344C57.589 66.48 54.389 64.304 48.373 64.304H36.597V78.512ZM36.597 93.872V109.104H50.421C56.181 109.104 59.381 106.032 59.381 101.552C59.381 96.816 56.181 93.872 50.421 93.872H36.597ZM115.783 100.016H108.615V126H88.263V47.408H123.591C140.487 47.408 152.135 57.008 152.135 74.16C152.135 86.064 146.119 94.256 136.519 97.84L154.951 126H132.167L115.783 100.016ZM108.615 64.688V83.632H121.415C128.711 83.632 132.039 79.92 132.039 74.16C132.039 68.4 128.711 64.688 121.415 64.688H108.615Z"
    fill="#D30002"
  />
</svg>
