<svg
  viewBox="0 0 4332 774"
  fill="none"
  xmlns="http://www.w3.org/2000/svg"
  class="text-normal"
>
  <path
    d="M11.5412 644L90.0213 171.273H276.527C312.228 171.273 341.542 178.12 364.471 191.816C387.553 205.358 403.711 224.208 412.944 248.368C422.331 272.374 424.485 300.072 419.407 331.464C414.175 363.01 402.788 390.786 385.245 414.792C367.856 438.644 345.236 457.263 317.383 470.651C289.53 484.039 257.369 490.733 220.898 490.733H102.024L115.181 410.637H217.898C237.287 410.637 253.829 407.329 267.525 400.712C281.374 393.941 292.377 384.631 300.533 372.782C308.688 360.779 313.997 347.007 316.46 331.464C319.076 315.615 318.229 301.842 313.92 290.147C309.612 278.452 301.687 269.373 290.146 262.91C278.758 256.293 263.447 252.984 244.212 252.984H176.811L111.488 644H11.5412ZM521.2 650.694C498.733 650.694 479.267 646.77 462.802 638.922C446.49 630.92 434.487 619.071 426.793 603.375C419.099 587.679 417.176 568.213 421.023 544.977C424.408 525.28 430.794 508.814 440.181 495.58C449.722 482.192 461.34 471.421 475.036 463.265C488.731 455.109 503.888 448.877 520.508 444.568C537.281 440.259 554.593 437.336 572.443 435.797C593.063 433.643 609.837 431.565 622.763 429.565C635.843 427.564 645.614 424.717 652.077 421.024C658.54 417.177 662.465 411.483 663.849 403.943V402.558C666.158 388.093 663.465 376.86 655.771 368.858C648.23 360.702 636.151 356.624 619.531 356.624C601.989 356.624 587.062 360.471 574.751 368.165C562.595 375.86 553.9 385.631 548.668 397.48L459.109 390.094C467.111 368.55 479.19 349.93 495.348 334.234C511.66 318.384 531.28 306.228 554.208 297.764C577.137 289.147 602.835 284.838 631.303 284.838C651 284.838 669.389 287.146 686.47 291.763C703.705 296.379 718.555 303.535 731.019 313.229C743.638 322.924 752.717 335.388 758.256 350.623C763.95 365.703 765.104 383.785 761.719 404.866L721.786 644H628.533L636.843 594.835H634.073C626.533 605.914 617.3 615.686 606.374 624.149C595.449 632.459 582.907 638.999 568.75 643.769C554.593 648.386 538.743 650.694 521.2 650.694ZM560.671 582.832C574.982 582.832 588.139 579.985 600.142 574.291C612.299 568.444 622.301 560.596 630.149 550.747C638.151 540.899 643.229 529.742 645.384 517.278L651.385 479.653C648.307 481.654 643.845 483.424 637.997 484.962C632.304 486.501 626.071 487.963 619.3 489.348C612.683 490.579 605.99 491.733 599.219 492.81C592.448 493.734 586.37 494.657 580.984 495.58C569.135 497.273 558.517 499.966 549.13 503.659C539.743 507.352 532.126 512.353 526.278 518.663C520.431 524.818 516.815 532.512 515.43 541.745C513.275 555.133 516.43 565.366 524.893 572.445C533.511 579.369 545.437 582.832 560.671 582.832ZM957.342 650.925C920.872 650.925 890.865 643.231 867.321 627.842C843.931 612.3 827.542 590.757 818.155 563.212C808.922 535.667 807.306 503.967 813.308 468.112C819.155 431.796 831.389 399.942 850.009 372.551C868.629 345.006 892.25 323.54 920.872 308.151C949.648 292.609 981.963 284.838 1017.82 284.838C1048.75 284.838 1074.91 290.455 1096.3 301.688C1117.69 312.922 1133.38 328.695 1143.39 349.007C1153.39 369.32 1156.77 393.171 1153.54 420.562H1060.98C1061.14 403.02 1056.6 388.786 1047.36 377.86C1038.13 366.934 1024.59 361.472 1006.74 361.472C991.35 361.472 977.193 365.626 964.267 373.936C951.494 382.092 940.646 394.018 931.721 409.714C922.949 425.41 916.794 444.414 913.255 466.727C909.561 489.348 909.484 508.583 913.024 524.433C916.563 540.283 923.334 552.363 933.336 560.673C943.339 568.982 955.957 573.137 971.191 573.137C982.579 573.137 993.12 570.829 1002.81 566.212C1012.66 561.596 1021.28 554.902 1028.67 546.131C1036.05 537.205 1041.75 526.511 1045.75 514.046H1138.54C1132.23 541.283 1120.77 565.135 1104.15 585.602C1087.68 606.068 1066.98 622.072 1042.05 633.613C1017.13 645.154 988.888 650.925 957.342 650.925ZM1340.22 650.925C1303.9 650.925 1273.82 643.538 1249.97 628.766C1226.12 613.839 1209.34 592.757 1199.65 565.52C1190.11 538.129 1188.49 505.736 1194.8 468.343C1200.96 431.873 1213.34 399.865 1231.96 372.32C1250.74 344.775 1274.28 323.309 1302.6 307.92C1330.91 292.532 1362.46 284.838 1397.23 284.838C1420.62 284.838 1441.78 288.608 1460.71 296.148C1479.79 303.535 1495.64 314.768 1508.26 329.849C1520.88 344.775 1529.5 363.472 1534.11 385.939C1538.88 408.406 1538.81 434.72 1533.88 464.881L1529.5 491.887H1230.35L1239.81 430.95H1446.63C1448.94 416.792 1448.02 404.251 1443.86 393.325C1439.71 382.4 1432.78 373.859 1423.09 367.704C1413.39 361.395 1401.47 358.24 1387.31 358.24C1372.84 358.24 1359.3 361.779 1346.68 368.858C1334.07 375.937 1323.45 385.246 1314.83 396.788C1306.37 408.175 1300.9 420.562 1298.44 433.95L1287.59 494.426C1284.52 513.046 1285.13 528.511 1289.44 540.822C1293.9 553.132 1301.6 562.365 1312.52 568.521C1323.45 574.522 1337.3 577.523 1354.07 577.523C1365 577.523 1375.23 575.984 1384.77 572.906C1394.46 569.829 1403.08 565.289 1410.62 559.288C1418.16 553.132 1424.32 545.515 1429.09 536.436L1518.88 542.438C1510.57 564.289 1497.95 583.37 1481.02 599.682C1464.1 615.839 1443.71 628.458 1419.86 637.537C1396.16 646.462 1369.61 650.925 1340.22 650.925Z"
    fill="#6366F1"
  />
  <path
    d="M1657.02 157.273H1780.28L1858.07 474.886H1863.61L2046.19 157.273H2169.45L2090.97 630H1994.02L2045.27 322.312H2041.11L1868.46 627.692H1802.21L1731.12 321.158H1727.19L1675.49 630H1578.54L1657.02 157.273ZM2271.65 636.694C2249.18 636.694 2229.71 632.77 2213.25 624.922C2196.94 616.92 2184.93 605.071 2177.24 589.375C2169.55 573.679 2167.62 554.213 2171.47 530.977C2174.86 511.28 2181.24 494.814 2190.63 481.58C2200.17 468.192 2211.79 457.421 2225.48 449.265C2239.18 441.109 2254.34 434.877 2270.96 430.568C2287.73 426.259 2305.04 423.336 2322.89 421.797C2343.51 419.643 2360.28 417.565 2373.21 415.565C2386.29 413.564 2396.06 410.717 2402.52 407.024C2408.99 403.177 2412.91 397.483 2414.3 389.943V388.558C2416.6 374.093 2413.91 362.86 2406.22 354.858C2398.68 346.702 2386.6 342.624 2369.98 342.624C2352.44 342.624 2337.51 346.471 2325.2 354.165C2313.04 361.86 2304.35 371.631 2299.12 383.48L2209.56 376.094C2217.56 354.55 2229.64 335.93 2245.8 320.234C2262.11 304.384 2281.73 292.228 2304.66 283.764C2327.58 275.147 2353.28 270.838 2381.75 270.838C2401.45 270.838 2419.84 273.146 2436.92 277.763C2454.15 282.379 2469 289.535 2481.47 299.229C2494.08 308.924 2503.16 321.388 2508.7 336.623C2514.4 351.703 2515.55 369.785 2512.17 390.866L2472.23 630H2378.98L2387.29 580.835H2384.52C2376.98 591.914 2367.75 601.686 2356.82 610.149C2345.9 618.459 2333.35 624.999 2319.2 629.769C2305.04 634.386 2289.19 636.694 2271.65 636.694ZM2311.12 568.832C2325.43 568.832 2338.59 565.985 2350.59 560.291C2362.75 554.444 2372.75 546.596 2380.6 536.747C2388.6 526.899 2393.68 515.742 2395.83 503.278L2401.83 465.653C2398.75 467.654 2394.29 469.424 2388.44 470.962C2382.75 472.501 2376.52 473.963 2369.75 475.348C2363.13 476.579 2356.44 477.733 2349.67 478.81C2342.9 479.734 2336.82 480.657 2331.43 481.58C2319.58 483.273 2308.96 485.966 2299.58 489.659C2290.19 493.352 2282.57 498.353 2276.73 504.663C2270.88 510.818 2267.26 518.512 2265.88 527.745C2263.72 541.133 2266.88 551.366 2275.34 558.445C2283.96 565.369 2295.88 568.832 2311.12 568.832ZM2654.47 527.976L2674.09 410.025H2688.4L2824.82 275.455H2937.69L2755.8 453.651H2732.26L2654.47 527.976ZM2548.52 630L2627 157.273H2725.33L2646.85 630H2548.52ZM2770.11 630L2691.63 475.579L2768.5 406.101L2885.29 630H2770.11ZM3072.89 636.925C3036.58 636.925 3006.49 629.538 2982.64 614.766C2958.79 599.839 2942.02 578.757 2932.32 551.52C2922.78 524.129 2921.17 491.736 2927.48 454.343C2933.63 417.873 2946.02 385.865 2964.64 358.32C2983.41 330.775 3006.96 309.309 3035.27 293.92C3063.58 278.532 3095.13 270.838 3129.91 270.838C3153.3 270.838 3174.46 274.608 3193.38 282.148C3212.47 289.535 3228.32 300.768 3240.93 315.849C3253.55 330.775 3262.17 349.472 3266.79 371.939C3271.56 394.406 3271.48 420.72 3266.56 450.881L3262.17 477.887H2963.02L2972.49 416.95H3179.3C3181.61 402.792 3180.69 390.251 3176.53 379.325C3172.38 368.4 3165.46 359.859 3155.76 353.704C3146.07 347.395 3134.14 344.24 3119.98 344.24C3105.52 344.24 3091.98 347.779 3079.36 354.858C3066.74 361.937 3056.12 371.246 3047.5 382.788C3039.04 394.175 3033.58 406.562 3031.12 419.95L3020.27 480.426C3017.19 499.046 3017.8 514.511 3022.11 526.822C3026.58 539.132 3034.27 548.365 3045.2 554.521C3056.12 560.522 3069.97 563.523 3086.74 563.523C3097.67 563.523 3107.9 561.984 3117.44 558.906C3127.14 555.829 3135.76 551.289 3143.3 545.288C3150.84 539.132 3156.99 531.515 3161.76 522.436L3251.55 528.438C3243.24 550.289 3230.62 569.37 3213.7 585.682C3196.77 601.839 3176.38 614.458 3152.53 623.537C3128.83 632.462 3102.29 636.925 3072.89 636.925ZM3301.35 630L3360.44 275.455H3455.77L3445.39 337.315H3449.08C3459.24 315.31 3472.85 298.691 3489.94 287.457C3507.17 276.07 3525.71 270.376 3545.56 270.376C3550.49 270.376 3555.64 270.684 3561.03 271.3C3566.57 271.761 3571.49 272.531 3575.8 273.608L3561.03 361.09C3556.72 359.551 3550.57 358.32 3542.56 357.397C3534.72 356.32 3527.25 355.781 3520.17 355.781C3505.86 355.781 3492.55 358.936 3480.24 365.245C3467.93 371.4 3457.54 380.018 3449.08 391.097C3440.77 402.177 3435.31 414.949 3432.69 429.414L3399.68 630H3301.35Z"
    fill="#6366F1"
  />
  <path
    d="M814.131 593C807.551 593 802.726 591.019 801.849 588.497L742.631 294.514C739.999 308.745 737.367 324.237 734.297 339.728C711.487 454.655 699.644 458.618 692.187 461.14C689.116 462.221 685.168 462.581 681.221 462.401C653.586 460.6 650.076 442.766 650.076 432.318H631.215C624.635 432.318 619.371 430.157 618.932 427.455C618.494 423.131 614.107 415.025 605.773 414.845C605.773 414.845 605.773 414.845 605.334 414.845C597.439 414.845 590.42 423.312 588.665 427.995C587.788 430.517 582.525 432.318 576.822 432.318H501.813L477.688 484.018C476.372 486.359 471.546 487.98 465.844 487.98C460.142 487.98 454.878 486.359 454.001 484.018L418.909 407.46L407.943 428.535C406.627 430.877 401.802 432.498 396.099 432.498H349.602L319.336 550.308C318.897 552.83 313.633 554.811 307.492 554.811C301.351 554.811 296.087 552.83 295.649 550.308L258.802 356.121C257.048 362.426 255.732 368.73 253.977 375.215C232.484 455.016 219.763 459.159 213.183 461.32C209.674 462.401 205.726 462.942 201.34 462.581C173.705 460.78 170.195 442.946 170.195 432.498H151.334C144.754 432.498 139.49 430.337 139.051 427.635C138.613 423.312 134.226 415.205 125.892 415.025C125.892 415.025 125.892 415.025 125.453 415.025C117.558 415.025 110.539 423.492 108.785 428.175C107.907 430.697 102.644 432.498 96.9411 432.498H12.2821C5.70237 432.498 0 430.337 0 427.455C0 424.753 5.26372 422.411 12.2821 422.411H86.8522C90.8001 415.746 101.328 404.397 126.769 404.938C149.14 405.478 158.791 414.665 161.861 422.411H182.039C185.548 422.411 188.619 422.951 190.812 424.032C193.005 425.113 194.321 426.374 193.882 427.815C192.567 437.542 195.637 446.549 200.023 450.692C214.06 433.94 234.238 362.786 246.959 297.576C247.397 295.055 252.661 293.073 259.241 293.073C265.382 293.073 270.646 295.055 271.085 297.576L308.808 495.366L326.354 426.914C326.793 424.392 332.056 422.411 338.197 422.411H386.01L407.504 381.16C408.82 378.818 413.645 377.197 419.347 377.197C425.05 377.197 429.875 378.998 431.191 381.16L465.844 456.457L479.881 426.374C481.197 424.032 486.022 422.411 491.724 422.411H566.733C570.681 415.746 581.647 404.397 606.65 404.938C629.021 405.478 638.672 414.665 641.742 422.411H661.92C665.429 422.411 668.5 422.951 670.693 424.032C672.886 425.113 674.202 426.374 673.763 427.815C672.447 436.822 675.079 445.288 679.027 449.792C695.257 423.672 717.628 303.521 728.594 227.683C729.033 225.162 734.297 223 740.438 223C746.579 223 751.843 224.981 752.72 227.503L814.569 535.897L843.081 426.914C843.959 424.392 848.784 422.411 854.925 422.411H902.738L924.231 381.16C925.547 378.818 930.372 377.197 936.075 377.197C941.777 377.197 946.602 378.998 947.918 381.16L982.571 456.457L996.608 426.374C997.924 424.032 1002.75 422.411 1008.45 422.411H1083.46C1087.41 415.746 1098.37 404.397 1123.38 404.938C1145.75 405.478 1155.4 414.665 1158.47 422.411H1178.65C1182.16 422.411 1185.23 422.951 1187.42 424.032C1189.61 425.113 1190.93 426.374 1190.49 427.815C1189.17 437.542 1192.25 446.549 1196.63 450.692C1210.67 433.94 1230.85 362.786 1243.57 297.576C1244.01 295.055 1249.27 293.073 1255.85 293.073C1261.99 293.073 1267.25 295.055 1267.69 297.576L1305.42 495.366L1322.96 426.914C1323.4 424.392 1328.66 422.411 1334.81 422.411H1382.62L1404.11 381.16C1405.43 378.818 1410.25 377.197 1415.96 377.197C1421.66 377.197 1426.48 378.998 1427.8 381.16L1462.45 456.457L1476.49 426.374C1477.8 424.032 1482.63 422.411 1488.33 422.411H1577.82C1584.4 422.411 1590.1 424.573 1590.1 427.455C1590.1 430.157 1584.83 432.498 1577.82 432.498H1498.42L1474.3 484.198C1472.98 486.539 1468.15 488.161 1462.45 488.161C1456.75 488.161 1451.49 486.539 1450.61 484.198L1415.52 407.64L1404.55 428.716C1403.23 431.057 1398.41 432.679 1392.71 432.679H1346.21L1315.94 550.488C1315.51 553.01 1310.24 554.991 1304.1 554.991C1297.96 554.991 1292.7 553.01 1292.26 550.488L1255.41 356.301C1253.66 362.606 1252.34 368.91 1250.59 375.395C1229.09 455.196 1216.37 459.339 1209.79 461.501C1206.28 462.581 1202.33 463.122 1197.95 462.761C1170.31 460.96 1166.8 443.127 1166.8 432.679H1147.94C1141.36 432.679 1136.1 430.517 1135.66 427.815C1135.22 423.492 1130.83 415.386 1122.5 415.205C1122.5 415.205 1122.5 415.205 1122.06 415.205C1114.17 415.205 1107.15 423.672 1105.39 428.355C1104.52 430.877 1099.25 432.679 1093.55 432.679H1018.54L994.415 484.378C993.099 486.719 988.274 488.341 982.571 488.341C976.869 488.341 971.606 486.719 970.728 484.378L935.636 407.82L924.67 428.896C923.354 431.238 918.529 432.859 912.826 432.859H866.33L825.097 589.217C825.535 591.018 820.272 593 814.131 593Z"
    fill="currentColor"
  />
  <path
    d="M1810.3 593C1803.72 593 1798.9 591.019 1798.02 588.497L1738.8 294.514C1736.17 308.745 1733.54 324.237 1730.47 339.728C1707.66 454.655 1695.81 458.618 1688.36 461.14C1685.29 462.221 1681.34 462.581 1677.39 462.401C1649.76 460.6 1646.25 442.766 1646.25 432.318H1627.38C1620.8 432.318 1615.54 430.157 1615.1 427.455C1614.66 423.131 1610.28 415.025 1601.94 414.845C1601.94 414.845 1601.94 414.845 1601.5 414.845C1593.61 414.845 1586.59 423.312 1584.84 427.995C1583.96 430.517 1578.69 432.318 1572.99 432.318H1497.98L1473.86 484.018C1472.54 486.359 1467.72 487.98 1462.01 487.98C1456.31 487.98 1451.05 486.359 1450.17 484.018L1415.08 407.46L1404.11 428.535C1402.8 430.877 1397.97 432.498 1392.27 432.498H1345.77L1315.51 550.308C1315.07 552.83 1309.8 554.811 1303.66 554.811C1297.52 554.811 1292.26 552.83 1291.82 550.308L1254.97 356.121C1253.22 362.426 1251.9 368.73 1250.15 375.215C1228.65 455.016 1215.93 459.159 1209.35 461.32C1205.84 462.401 1201.9 462.942 1197.51 462.581C1169.87 460.78 1166.37 442.946 1166.37 432.498H1147.5C1140.92 432.498 1135.66 430.337 1135.22 427.635C1134.78 423.312 1130.4 415.205 1122.06 415.025C1122.06 415.025 1122.06 415.025 1121.62 415.025C1113.73 415.025 1106.71 423.492 1104.95 428.175C1104.08 430.697 1098.81 432.498 1093.11 432.498H1008.45C1001.87 432.498 996.17 430.337 996.17 427.455C996.17 424.753 1001.43 422.411 1008.45 422.411H1083.02C1086.97 415.746 1097.5 404.397 1122.94 404.938C1145.31 405.478 1154.96 414.665 1158.03 422.411H1178.21C1181.72 422.411 1184.79 422.951 1186.98 424.032C1189.18 425.113 1190.49 426.374 1190.05 427.815C1188.74 437.542 1191.81 446.549 1196.19 450.692C1210.23 433.94 1230.41 362.786 1243.13 297.576C1243.57 295.055 1248.83 293.073 1255.41 293.073C1261.55 293.073 1266.82 295.055 1267.25 297.576L1304.98 495.366L1322.52 426.914C1322.96 424.392 1328.23 422.411 1334.37 422.411H1382.18L1403.67 381.16C1404.99 378.818 1409.81 377.197 1415.52 377.197C1421.22 377.197 1426.05 378.998 1427.36 381.16L1462.01 456.457L1476.05 426.374C1477.37 424.032 1482.19 422.411 1487.89 422.411H1562.9C1566.85 415.746 1577.82 404.397 1602.82 404.938C1625.19 405.478 1634.84 414.665 1637.91 422.411H1658.09C1661.6 422.411 1664.67 422.951 1666.86 424.032C1669.06 425.113 1670.37 426.374 1669.93 427.815C1668.62 436.822 1671.25 445.288 1675.2 449.792C1691.43 423.672 1713.8 303.521 1724.76 227.683C1725.2 225.162 1730.47 223 1736.61 223C1742.75 223 1748.01 224.981 1748.89 227.503L1810.74 535.897L1839.25 426.914C1840.13 424.392 1844.95 422.411 1851.09 422.411H1898.91L1920.4 381.16C1921.72 378.818 1926.54 377.197 1932.24 377.197C1937.95 377.197 1942.77 378.998 1944.09 381.16L1978.74 456.457L1992.78 426.374C1994.09 424.032 1998.92 422.411 2004.62 422.411H2079.63C2083.58 415.746 2094.54 404.397 2119.55 404.938C2141.92 405.478 2151.57 414.665 2154.64 422.411H2174.82C2178.33 422.411 2181.4 422.951 2183.59 424.032C2185.78 425.113 2187.1 426.374 2186.66 427.815C2185.34 437.542 2188.42 446.549 2192.8 450.692C2206.84 433.94 2227.02 362.786 2239.74 297.576C2240.18 295.055 2245.44 293.073 2252.02 293.073C2258.16 293.073 2263.42 295.055 2263.86 297.576L2301.59 495.366L2319.13 426.914C2319.57 424.392 2324.83 422.411 2330.98 422.411H2378.79L2400.28 381.16C2401.6 378.818 2406.42 377.197 2412.13 377.197C2417.83 377.197 2422.65 378.998 2423.97 381.16L2458.62 456.457L2472.66 426.374C2473.97 424.032 2478.8 422.411 2484.5 422.411H2573.99C2580.57 422.411 2586.27 424.573 2586.27 427.455C2586.27 430.157 2581 432.498 2573.99 432.498H2494.59L2470.47 484.198C2469.15 486.539 2464.32 488.161 2458.62 488.161C2452.92 488.161 2447.66 486.539 2446.78 484.198L2411.69 407.64L2400.72 428.716C2399.4 431.057 2394.58 432.679 2388.88 432.679H2342.38L2312.11 550.488C2311.68 553.01 2306.41 554.991 2300.27 554.991C2294.13 554.991 2288.87 553.01 2288.43 550.488L2251.58 356.301C2249.83 362.606 2248.51 368.91 2246.76 375.395C2225.26 455.196 2212.54 459.339 2205.96 461.501C2202.45 462.581 2198.5 463.122 2194.12 462.761C2166.48 460.96 2162.97 443.127 2162.97 432.679H2144.11C2137.53 432.679 2132.27 430.517 2131.83 427.815C2131.39 423.492 2127 415.386 2118.67 415.205C2118.67 415.205 2118.67 415.205 2118.23 415.205C2110.34 415.205 2103.32 423.672 2101.56 428.355C2100.69 430.877 2095.42 432.679 2089.72 432.679H2014.71L1990.58 484.378C1989.27 486.719 1984.44 488.341 1978.74 488.341C1973.04 488.341 1967.78 486.719 1966.9 484.378L1931.81 407.82L1920.84 428.896C1919.52 431.238 1914.7 432.859 1909 432.859H1862.5L1821.27 589.217C1821.71 591.018 1816.44 593 1810.3 593Z"
    fill="currentColor"
  />
  <path
    d="M2806.03 593C2799.45 593 2794.63 591.019 2793.75 588.497L2734.53 294.514C2731.9 308.745 2729.27 324.237 2726.2 339.728C2703.39 454.655 2691.54 458.618 2684.09 461.14C2681.02 462.221 2677.07 462.581 2673.12 462.401C2645.49 460.6 2641.98 442.766 2641.98 432.318H2623.12C2616.54 432.318 2611.27 430.157 2610.83 427.455C2610.39 423.131 2606.01 415.025 2597.67 414.845C2597.67 414.845 2597.67 414.845 2597.24 414.845C2589.34 414.845 2582.32 423.312 2580.57 427.995C2579.69 430.517 2574.43 432.318 2568.72 432.318H2493.71L2469.59 484.018C2468.27 486.359 2463.45 487.98 2457.74 487.98C2452.04 487.98 2446.78 486.359 2445.9 484.018L2410.81 407.46L2399.84 428.535C2398.53 430.877 2393.7 432.498 2388 432.498H2341.5L2311.24 550.308C2310.8 552.83 2305.53 554.811 2299.39 554.811C2293.25 554.811 2287.99 552.83 2287.55 550.308L2250.7 356.121C2248.95 362.426 2247.63 368.73 2245.88 375.215C2224.38 455.016 2211.66 459.159 2205.08 461.32C2201.57 462.401 2197.63 462.942 2193.24 462.581C2165.61 460.78 2162.1 442.946 2162.1 432.498H2143.23C2136.65 432.498 2131.39 430.337 2130.95 427.635C2130.51 423.312 2126.13 415.205 2117.79 415.025C2117.79 415.025 2117.79 415.025 2117.35 415.025C2109.46 415.025 2102.44 423.492 2100.69 428.175C2099.81 430.697 2094.54 432.498 2088.84 432.498H2004.18C1997.6 432.498 1991.9 430.337 1991.9 427.455C1991.9 424.753 1997.16 422.411 2004.18 422.411H2078.75C2082.7 415.746 2093.23 404.397 2118.67 404.938C2141.04 405.478 2150.69 414.665 2153.76 422.411H2173.94C2177.45 422.411 2180.52 422.951 2182.71 424.032C2184.91 425.113 2186.22 426.374 2185.78 427.815C2184.47 437.542 2187.54 446.549 2191.92 450.692C2205.96 433.94 2226.14 362.786 2238.86 297.576C2239.3 295.055 2244.56 293.073 2251.14 293.073C2257.28 293.073 2262.55 295.055 2262.99 297.576L2300.71 495.366L2318.26 426.914C2318.69 424.392 2323.96 422.411 2330.1 422.411H2377.91L2399.4 381.16C2400.72 378.818 2405.55 377.197 2411.25 377.197C2416.95 377.197 2421.78 378.998 2423.09 381.16L2457.74 456.457L2471.78 426.374C2473.1 424.032 2477.92 422.411 2483.63 422.411H2558.63C2562.58 415.746 2573.55 404.397 2598.55 404.938C2620.92 405.478 2630.57 414.665 2633.64 422.411H2653.82C2657.33 422.411 2660.4 422.951 2662.59 424.032C2664.79 425.113 2666.1 426.374 2665.66 427.815C2664.35 436.822 2666.98 445.288 2670.93 449.792C2687.16 423.672 2709.53 303.521 2720.5 227.683C2720.93 225.162 2726.2 223 2732.34 223C2738.48 223 2743.74 224.981 2744.62 227.503L2806.47 535.897L2834.98 426.914C2835.86 424.392 2840.68 422.411 2846.83 422.411H2894.64L2916.13 381.16C2917.45 378.818 2922.27 377.197 2927.98 377.197C2933.68 377.197 2938.5 378.998 2939.82 381.16L2974.47 456.457L2988.51 426.374C2989.82 424.032 2994.65 422.411 3000.35 422.411H3075.36C3079.31 415.746 3090.28 404.397 3115.28 404.938C3137.65 405.478 3147.3 414.665 3150.37 422.411H3170.55C3174.06 422.411 3177.13 422.951 3179.32 424.032C3181.51 425.113 3182.83 426.374 3182.39 427.815C3181.08 437.542 3184.15 446.549 3188.53 450.692C3202.57 433.94 3222.75 362.786 3235.47 297.576C3235.91 295.055 3241.17 293.073 3247.75 293.073C3253.89 293.073 3259.15 295.055 3259.59 297.576L3297.32 495.366L3314.86 426.914C3315.3 424.392 3320.57 422.411 3326.71 422.411H3374.52L3396.01 381.16C3397.33 378.818 3402.15 377.197 3407.86 377.197C3413.56 377.197 3418.38 378.998 3419.7 381.16L3454.35 456.457L3468.39 426.374C3469.71 424.032 3474.53 422.411 3480.23 422.411H3569.72C3576.3 422.411 3582 424.573 3582 427.455C3582 430.157 3576.74 432.498 3569.72 432.498H3490.32L3466.2 484.198C3464.88 486.539 3460.06 488.161 3454.35 488.161C3448.65 488.161 3443.39 486.539 3442.51 484.198L3407.42 407.64L3396.45 428.716C3395.14 431.057 3390.31 432.679 3384.61 432.679H3338.11L3307.84 550.488C3307.41 553.01 3302.14 554.991 3296 554.991C3289.86 554.991 3284.6 553.01 3284.16 550.488L3247.31 356.301C3245.56 362.606 3244.24 368.91 3242.49 375.395C3220.99 455.196 3208.27 459.339 3201.69 461.501C3198.18 462.581 3194.23 463.122 3189.85 462.761C3162.21 460.96 3158.7 443.127 3158.7 432.679H3139.84C3133.26 432.679 3128 430.517 3127.56 427.815C3127.12 423.492 3122.74 415.386 3114.4 415.205C3114.4 415.205 3114.4 415.205 3113.96 415.205C3106.07 415.205 3099.05 423.672 3097.29 428.355C3096.42 430.877 3091.15 432.679 3085.45 432.679H3010.44L2986.32 484.378C2985 486.719 2980.17 488.341 2974.47 488.341C2968.77 488.341 2963.51 486.719 2962.63 484.378L2927.54 407.82L2916.57 428.896C2915.26 431.238 2910.43 432.859 2904.73 432.859H2858.23L2817 589.217C2817.44 591.018 2812.17 593 2806.03 593Z"
    fill="currentColor"
  />
  <path
    d="M3612.9 593.409C3592.26 597.364 3578.73 617.298 3582.69 637.945C3586.17 656.139 3602.15 668.796 3620.02 668.796C3622.4 668.796 3624.85 668.558 3627.22 668.084L3783.85 638.024C3792.79 636.284 3800.78 631.459 3806.47 624.339L3873.71 539.539L3851.25 528.069C3834.64 519.684 3823.09 504.496 3819.13 486.065L3755.69 566.039L3612.9 593.409Z"
    fill="currentColor"
  />
  <path
    d="M4170.75 262.752C4216.8 262.752 4254.13 225.423 4254.13 179.376C4254.13 133.329 4216.8 96 4170.75 96C4124.7 96 4087.37 133.329 4087.37 179.376C4087.37 225.423 4124.7 262.752 4170.75 262.752Z"
    fill="currentColor"
  />
  <path
    d="M3988.81 158.493C3980.03 149.475 3971.88 145.915 3962.94 145.915C3959.7 145.915 3956.46 146.39 3952.97 147.181L3809.88 181.116C3790.1 185.784 3777.92 205.639 3782.58 225.336C3786.62 242.264 3801.65 253.655 3818.34 253.655C3821.19 253.655 3824.04 253.339 3826.88 252.627L3948.78 223.754C3956.69 232.534 3996.33 275.488 4003.52 283.082C3953.13 337.031 3902.75 390.901 3852.35 444.851C3851.56 445.721 3850.85 446.591 3850.14 447.461C3835.43 466.209 3839.94 495.636 3862.09 506.789L3888.9 520.475L4016.58 585.656L3936.36 715.625C3925.37 733.503 3930.91 756.917 3948.78 767.992C3955.03 771.868 3961.91 773.688 3968.72 773.688C3981.45 773.688 3993.95 767.28 4001.15 755.652L4103.04 590.561C4108.65 581.464 4110.16 570.468 4107.23 560.264C4104.3 549.98 4097.26 541.437 4087.69 536.612L3983.04 483.374L4093.07 365.667L4176.13 436.07C4183.01 441.923 4191.48 444.771 4199.86 444.771C4208.88 444.771 4217.9 441.449 4224.94 434.962L4320.26 346.128C4335.13 332.285 4336 309.028 4322.16 294.157C4314.88 286.404 4305.07 282.449 4295.26 282.449C4286.32 282.449 4277.3 285.692 4270.26 292.258L4198.91 358.627C4198.83 358.706 4020.06 190.53 3988.81 158.493Z"
    fill="currentColor"
  />
</svg>
